<svg width="77" height="77" viewBox="0 0 77 77" fill="none" xmlns="http://www.w3.org/2000/svg">
<path fill-rule="evenodd" clip-rule="evenodd" d="M38.4993 6.41675C20.7893 6.41675 6.41602 20.7901 6.41602 38.5001C6.41602 56.2101 20.7893 70.5834 38.4993 70.5834C56.2093 70.5834 70.5827 56.2101 70.5827 38.5001C70.5827 20.7901 56.2093 6.41675 38.4993 6.41675ZM34.6493 51.0124L49.6323 39.7832C50.4985 39.1416 50.4985 37.8582 49.6323 37.2166L34.6493 25.9874C33.5906 25.1853 32.0827 25.9553 32.0827 27.2707V49.7291C32.0827 51.0445 33.5906 51.8145 34.6493 51.0124ZM12.8327 38.5001C12.8327 52.6488 24.3506 64.1667 38.4993 64.1667C52.6481 64.1667 64.166 52.6488 64.166 38.5001C64.166 24.3513 52.6481 12.8334 38.4993 12.8334C24.3506 12.8334 12.8327 24.3513 12.8327 38.5001Z" fill="white"/>
</svg>
